# xmcd CD database file
#
# Track frame offsets:
#	150
#	10406
#	21756
#	32985
#	43216
#	52979
#	63979
#	77432
#	87706
#	98428
#	112340
#	121796
#	133927
#	144441
#	154407
#	166955
#	178558
#	190083
#	201110
#	214084
#
# Disc length: 2943 seconds
#
# Revision: 1
# Processed by: cddbd v1.4PL0 Copyright (c) Steve Scherf et al.
# Submitted via: CDex 1.50
#
DISCID=180b7d14
DTITLE=Various Artist - Rhythm and Blues Goes Rock 'n' Roll - Vol 2 - Disc 6
DYEAR=2002
DGENRE=Vintage R&B
TTITLE0=Calvin Boze - Safronia B
TTITLE1=Harmonica Frank - Rock A Little Baby
TTITLE2=Ike Turner (AKA Icky Renrut) - The Rooster
TTITLE3=Mojo Watson - Look A There
TTITLE4=Bunker Hill - Little Red Riding Hood
TTITLE5=Clear Waters - Hillbilly Blues
TTITLE6=The Big Three - After A While
TTITLE7=Al Garris - That's All
TTITLE8=The Thrills - I Ain't Got The Money
TTITLE9=Jimmy McCracklin - Savoy Jump
TTITLE10=Bo Dudley - Shotgun Rider
TTITLE11=The 4 Gators - Wine O Wine
TTITLE12=Billy Miranda - Go Ahead
TTITLE13=Prentice Moreland - Holy Mackerel
TTITLE14=Betty James - I'm A Little Mixed Up
TTITLE15=Joe Tex - You Upset My Home
TTITLE16=Shy Guy Douglas - Monkey Doin' Woman
TTITLE17=Sugarboy - Overboard
TTITLE18=Sonny Knight - But Officer
TTITLE19=Tony Alan - Holy Smoke
EXTD=YEAR: 2002
EXTT0=
EXTT1=
EXTT2=
EXTT3=
EXTT4=
EXTT5=
EXTT6=
EXTT7=
EXTT8=
EXTT9=
EXTT10=
EXTT11=
EXTT12=
EXTT13=
EXTT14=
EXTT15=
EXTT16=
EXTT17=
EXTT18=
EXTT19=
PLAYORDER=
